<svg aria-hidden="true" style="position: absolute; width: 0; height: 0; overflow: hidden;" version="1.1" xmlns="http://www.w3.org/2000/svg" xmlns:xlink="http://www.w3.org/1999/xlink">
  <defs>
    <symbol id="icon-linkedin" viewBox="0 0 32 32">
    <path d="M7.143 32v-21.357h-6.643v21.357h6.643zM3.786 7.785c2.143 0 3.857-1.786 3.857-3.929 0-2.071-1.714-3.786-3.857-3.786-2.071 0-3.786 1.714-3.786 3.786 0 2.143 1.714 3.929 3.786 3.929zM31.929 32h0.071v-11.714c0-5.714-1.286-10.143-8-10.143-3.214 0-5.357 1.786-6.286 3.429h-0.071v-2.929h-6.357v21.357h6.643v-10.572c0-2.786 0.5-5.429 3.929-5.429s3.5 3.143 3.5 5.643v10.357h6.571z"></path>
    </symbol>
    <symbol id="icon-behance" viewBox="0 0 32 32">
    <path d="M12.889 15c1.722-0.889 2.667-2.167 2.667-4.111 0-3.944-2.944-4.889-6.278-4.889h-9.278v19.667h9.5c3.611 0 6.944-1.722 6.944-5.722 0-2.444-1.167-4.278-3.556-4.944zM4.278 9.333h4.111c1.556 0 2.944 0.444 2.944 2.278 0 1.667-1.111 2.333-2.667 2.333h-4.389v-4.611zM8.944 22.333h-4.667v-5.444h4.722c1.944 0 3.111 0.833 3.111 2.833s-1.444 2.611-3.167 2.611zM28.833 8.944v-1.944h-7.945v1.944h7.945zM32 18.777c0-4.222-2.5-7.778-6.944-7.778-4.389 0-7.333 3.278-7.333 7.556 0 4.444 2.833 7.5 7.333 7.5 3.389 0 5.611-1.556 6.667-4.778h-3.445c-0.389 1.222-1.944 1.833-3.111 1.833-2.278 0-3.5-1.333-3.5-3.611h10.278c0-0.222 0.055-0.5 0.055-0.722zM21.667 17c0.111-1.833 1.389-3 3.222-3 2 0 3 1.111 3.167 3h-6.389z"></path>
    </symbol>
    <symbol id="icon-so" viewBox="0 0 32 32">
    <path d="M23 19.928l-13.929-2.929-0.643 2.786 14 2.929 0.571-2.786zM26.643 13.714l-10.928-9.143-1.857 2.214 11 9.143 1.786-2.214zM24.429 16.571l-12.929-6.071-1.214 2.643 12.929 6 1.214-2.571zM21-0.001l-2.286 1.714 8.5 11.5 2.286-1.714-8.5-11.5zM22.429 23.428h-14.286v2.857h14.286v-2.857zM25.286 29.142h-20v-8.572h-2.857v11.429h25.714v-11.429h-2.857v8.572z"></path>
    </symbol>
    <symbol id="icon-codepen" viewBox="0 0 28 32">
    <path d="M27.889 10.666l-13-8.667c-0.444-0.278-0.944-0.278-1.389 0l-13 8.667c-0.333 0.222-0.5 0.611-0.5 1v8.667c0 0.444 0.167 0.833 0.5 1.055l13 8.667c0.444 0.278 0.944 0.278 1.389 0l13-8.667c0.333-0.222 0.556-0.611 0.556-1.055v-8.667c0-0.389-0.222-0.778-0.556-1zM15.444 5.333l9.556 6.333-4.278 2.889-5.278-3.556v-5.667zM13 5.333v5.667l-5.333 3.556-4.278-2.889 9.611-6.333zM2.444 14l3.056 2-3.056 2.056v-4.056zM13 26.722l-9.611-6.389 4.278-2.833 5.333 3.556v5.667zM14.222 18.889l-4.333-2.889 4.333-2.889 4.278 2.889-4.278 2.889zM15.444 26.722v-5.667l5.278-3.556 4.278 2.833-9.556 6.389zM26 18.055l-3.111-2.056 3.111-2v4.056z"></path>
    </symbol>
    <symbol id="icon-github" viewBox="0 0 32 32">
    <path d="M10.313 24.875c0-0.125-0.125-0.25-0.313-0.25s-0.313 0.125-0.313 0.25c0 0.125 0.125 0.25 0.313 0.187 0.188 0 0.313-0.062 0.313-0.187zM8.375 24.562c0 0.125 0.125 0.313 0.313 0.313 0.125 0.062 0.313 0 0.375-0.125 0-0.125-0.063-0.25-0.25-0.313s-0.375 0-0.438 0.125zM11.188 24.5c-0.188 0-0.313 0.125-0.313 0.312 0 0.125 0.188 0.188 0.375 0.125s0.313-0.125 0.25-0.25c0-0.125-0.188-0.25-0.313-0.187zM15.25 0.499c-8.625 0-15.25 6.625-15.25 15.25 0 6.937 4.313 12.875 10.563 15 0.813 0.125 1.063-0.375 1.063-0.75 0-0.438 0-2.563 0-3.875 0 0-4.375 0.937-5.313-1.875 0 0-0.688-1.813-1.688-2.25 0 0-1.438-1 0.063-1 0 0 1.563 0.125 2.438 1.625 1.375 2.437 3.625 1.75 4.563 1.312 0.125-1 0.5-1.687 1-2.125-3.5-0.375-7.063-0.875-7.063-6.875 0-1.75 0.5-2.563 1.5-3.688-0.188-0.438-0.688-2.063 0.188-4.25 1.25-0.375 4.313 1.688 4.313 1.688 1.25-0.375 2.563-0.5 3.875-0.5 1.375 0 2.688 0.125 3.938 0.5 0 0 3-2.125 4.313-1.688 0.875 2.188 0.312 3.813 0.188 4.25 1 1.125 1.625 1.938 1.625 3.688 0 6-3.687 6.5-7.187 6.875 0.563 0.5 1.063 1.438 1.063 2.938 0 2.062-0.063 4.687-0.063 5.187 0 0.438 0.313 0.938 1.125 0.75 6.25-2.062 10.5-8 10.5-14.937 0-8.625-7.062-15.25-15.75-15.25zM6.063 22.062c-0.125 0.063-0.063 0.25 0 0.375 0.125 0.063 0.25 0.125 0.375 0.063 0.063-0.063 0.063-0.25-0.063-0.375-0.125-0.063-0.25-0.125-0.313-0.063zM5.375 21.562c-0.063 0.125 0 0.188 0.125 0.25s0.25 0.063 0.313-0.062c0-0.063-0.063-0.125-0.188-0.188s-0.188-0.062-0.25 0zM7.375 23.812c-0.063 0.063-0.063 0.25 0.125 0.375 0.125 0.125 0.313 0.188 0.375 0.063 0.063-0.063 0.063-0.25-0.063-0.375s-0.313-0.188-0.438-0.063zM6.688 22.875c-0.125 0.062-0.125 0.25 0 0.375s0.25 0.187 0.375 0.125c0.063-0.063 0.063-0.25 0-0.375-0.125-0.125-0.25-0.188-0.375-0.125z"></path>
    </symbol>
    <symbol id="icon-stackblitz" viewBox="0 0 32 32">
    <path d="M19.031 13.999h6.969c0.831 0 1.581 0.519 1.819 1.294 0.344 0.781 0.125 1.662-0.5 2.213l-16 14c-0.706 0.612-1.739 0.662-2.494 0.112s-1.031-1.55-0.662-2.406l4.807-11.212h-7.025c-0.777 0-1.523-0.519-1.816-1.294-0.293-0.781-0.072-1.662 0.555-2.213l15.998-13.999c0.706-0.615 1.738-0.662 2.494-0.113s1.031 1.547 0.663 2.406l-4.806 11.212z"></path>
    </symbol>
    <symbol id="icon-dw" viewBox="0 0 32 32">
    <path d="M18.667 13.333h6.667l-9.333 10.667-9.333-10.667h6.667v-13.333h5.333v13.333zM24.284 2.339l-1.617 2.132c3.979 2.309 6.667 6.607 6.667 11.529 0 7.352-5.981 13.333-13.333 13.333s-13.333-5.981-13.333-13.333c0-4.923 2.688-9.22 6.667-11.529l-1.617-2.132c-4.62 2.804-7.716 7.863-7.716 13.661 0 8.836 7.164 16 16 16s16-7.164 16-16c0-5.799-3.096-10.857-7.716-13.661z"></path>
    </symbol> 
  </defs>
</svg>